<svg xmlns="http://www.w3.org/2000/svg" viewBox="0 0 32 32">
  <rect width="32" height="32" rx="4" fill="#0a0a0a"/>
  <rect x="1" y="1" width="30" height="30" rx="3" fill="none" stroke="#00ff41" stroke-width="0.75" opacity="0.4"/>
  <!-- Checkered flag -->
  <g transform="translate(7,6)">
    <!-- Flag pole -->
    <rect x="0" y="2" width="1.5" height="18" rx="0.5" fill="#00ff41" opacity="0.6"/>
    <!-- Flag body — 4x3 checkerboard -->
    <rect x="1.5" y="2" width="16" height="12" rx="1" fill="none" stroke="#00ff41" stroke-width="0.5" opacity="0.3"/>
    <!-- Dark squares -->
    <rect x="1.5" y="2" width="4" height="4" fill="#00ff41" opacity="0.7"/>
    <rect x="9.5" y="2" width="4" height="4" fill="#00ff41" opacity="0.7"/>
    <rect x="5.5" y="6" width="4" height="4" fill="#00ff41" opacity="0.7"/>
    <rect x="13.5" y="6" width="4" height="4" fill="#00ff41" opacity="0.7"/>
    <rect x="1.5" y="10" width="4" height="4" fill="#00ff41" opacity="0.7"/>
    <rect x="9.5" y="10" width="4" height="4" fill="#00ff41" opacity="0.7"/>
    <!-- Light squares -->
    <rect x="5.5" y="2" width="4" height="4" fill="#00ff41" opacity="0.15"/>
    <rect x="13.5" y="2" width="4" height="4" fill="#00ff41" opacity="0.15"/>
    <rect x="1.5" y="6" width="4" height="4" fill="#00ff41" opacity="0.15"/>
    <rect x="9.5" y="6" width="4" height="4" fill="#00ff41" opacity="0.15"/>
    <rect x="5.5" y="10" width="4" height="4" fill="#00ff41" opacity="0.15"/>
    <rect x="13.5" y="10" width="4" height="4" fill="#00ff41" opacity="0.15"/>
  </g>
</svg>
